<svg height="512pt" fill="#255d53" viewBox="0 0 512 512" width="512pt" xmlns="http://www.w3.org/2000/svg"><path d="m75 331c-41.351562 0-75 33.648438-75 75 0 15.394531 4.628906 30.191406 14.488281 44.179688l49.277344 56.753906c2.839844 3.21875 6.941406 5.066406 11.234375 5.066406s8.394531-1.847656 11.234375-5.066406l50.363281-58.117188c8.773438-12.625 13.402344-27.421875 13.402344-42.816406 0-41.351562-33.648438-75-75-75zm0 90c-8.285156 0-15-6.714844-15-15s6.714844-15 15-15 15 6.714844 15 15-6.714844 15-15 15zm0 0"/><path d="m407 0c-57.890625 0-105 48.109375-105 106 0 20.40625 5.859375 40.179688 16.949219 57.21875l75.480469 115.96875c2.769531 4.25 7.503906 6.8125 12.570312 6.8125s9.800781-2.5625 12.566406-6.8125l75.484375-115.972656c11.089844-17.035156 16.949219-36.808594 16.949219-57.214844 0-57.890625-47.109375-106-105-106zm0 151c-24.8125 0-45-20.1875-45-45s20.1875-45 45-45 45 20.1875 45 45-20.1875 45-45 45zm0 0"/><path d="m407 91c-8.277344 0-15 6.722656-15 15s6.722656 15 15 15 15-6.722656 15-15-6.722656-15-15-15zm0 0"/><path d="m180 398.160156 122 47.996094v-120.03125l-122-47.976562zm0 0"/><path d="m332 238.253906v66.957032l55.640625 18.535156zm0 0"/><path d="m275.066406 133.066406-95.066406-37.222656v150l122 48v-101.683594l-8.1875-12.582031c-9.273438-14.230469-15.375-30.039063-18.746094-46.511719zm0 0"/><path d="m91.613281 302.605469c22.882813 3.695312 43.050781 14.835937 58.386719 30.875v-56.671875l-49.746094 16.574218c-4.382812 1.464844-7.082031 5.082032-8.640625 9.222657zm0 0"/><path d="m0 151v181.75c15.925781-16.304688 37.183594-27.023438 60.816406-30.285156 2.023438-17.164063 13.242188-31.957032 29.945313-37.527344l59.238281-19.746094v-150.351562l-139.308594 41.789062c-6.339844 1.90625-10.691406 7.75-10.691406 14.371094zm0 0"/><path d="m409.535156 349.53125c-7.808594 5.609375-17.886718 7.160156-27.027344 4.113281l-50.507812-16.839843v110.355468l139.308594-41.789062c6.339844-1.90625 10.691406-7.75 10.691406-14.371094v-152.746094l-60.773438 93.378906c-1.578124 7.125-5.664062 13.554688-11.691406 17.898438zm0 0"/></svg>