<svg fill="#b6b9bc" height="512pt" viewBox="0 0 512 512" width="512pt" xmlns="http://www.w3.org/2000/svg"><path d="m437.019531 74.980469c-48.351562-48.351563-112.640625-74.980469-181.019531-74.980469s-132.667969 26.628906-181.019531 74.980469c-48.351563 48.351562-74.980469 112.640625-74.980469 181.019531s26.628906 132.667969 74.980469 181.019531c48.351562 48.351563 112.640625 74.980469 181.019531 74.980469s132.667969-26.628906 181.019531-74.980469c48.351563-48.351562 74.980469-112.640625 74.980469-181.019531s-26.628906-132.667969-74.980469-181.019531zm-181.019531 407.019531c-124.617188 0-226-101.382812-226-226s101.382812-226 226-226 226 101.382812 226 226-101.382812 226-226 226zm0 0"/><path d="m91.710938 254.710938v15c0 90.589843 73.699218 164.289062 164.289062 164.289062s164.289062-73.699219 164.289062-164.289062v-15zm297.75 30c-1.203126 10.765624-3.691407 21.144531-7.292969 30.996093h-252.335938c-3.601562-9.851562-6.089843-20.230469-7.289062-30.996093zm-133.460938 119.289062c-45.859375 0-86.414062-23.113281-110.652344-58.292969h221.304688c-24.238282 35.179688-64.792969 58.292969-110.652344 58.292969zm0 0"/><path d="m171.863281 164.667969c14.152344 0 25.667969 11.511719 25.667969 25.667969h30c0-30.695313-24.972656-55.667969-55.667969-55.667969-30.695312 0-55.667969 24.972656-55.667969 55.667969h30c0-14.15625 11.515626-25.667969 25.667969-25.667969zm0 0"/><path d="m340.136719 164.667969c14.152343 0 25.667969 11.511719 25.667969 25.667969h30c0-30.695313-24.972657-55.667969-55.667969-55.667969-30.695313 0-55.667969 24.972656-55.667969 55.667969h30c0-14.15625 11.511719-25.667969 25.667969-25.667969zm0 0"/></svg>