<?xml version="1.0" encoding="iso-8859-1"?>
<!-- Generator: Adobe Illustrator 19.0.0, SVG Export Plug-In . SVG Version: 6.00 Build 0)  -->
<svg version="1.1" id="Layer_1" xmlns="http://www.w3.org/2000/svg" xmlns:xlink="http://www.w3.org/1999/xlink" x="0px" y="0px"
	 viewBox="0 0 512 512" style="enable-background:new 0 0 512 512;" xml:space="preserve">
<g>
	<g>
		<path fill="#255d53" d="M256,0c-66.422,0-120.461,54.039-120.461,120.461c0,48.703,28.906,91.914,72.977,110.739v242.149L256,512l47.484-38.651
			v-50.152l-11.264-11.996l11.264-11.996v-28.838l-14.604-17.082l14.604-17.082v-36.086l-7.438-7.206l7.438-7.206v-54.504
			c44.071-18.826,72.977-62.036,72.977-110.739C376.461,54.039,322.422,0,256,0z M256,102.765
			c-15.345,0-27.791-12.446-27.791-27.791S240.655,47.184,256,47.184s27.791,12.446,27.791,27.791
			C283.791,90.319,271.345,102.765,256,102.765z"/>
	</g>
</g>
<g>
</g>
<g>
</g>
<g>
</g>
<g>
</g>
<g>
</g>
<g>
</g>
<g>
</g>
<g>
</g>
<g>
</g>
<g>
</g>
<g>
</g>
<g>
</g>
<g>
</g>
<g>
</g>
<g>
</g>
</svg>
