<?xml version="1.0" encoding="iso-8859-1"?>
<!-- Generator: Adobe Illustrator 19.0.0, SVG Export Plug-In . SVG Version: 6.00 Build 0)  -->
<svg version="1.1" id="Capa_1" xmlns="http://www.w3.org/2000/svg" xmlns:xlink="http://www.w3.org/1999/xlink" x="0px" y="0px"
	 viewBox="0 0 512 512" style="enable-background:new 0 0 512 512;" xml:space="preserve">
<g>
	<g>
		<path fill="#255d53"  d="M496.999,0H15.001c-8.284,0-15,6.716-15,15v482c0,8.284,6.716,15,15,15h481.998c8.284,0,15-6.716,15-15V15
			C511.999,6.716,505.283,0,496.999,0z M146.109,266.604c-2.79,2.79-6.66,4.4-10.61,4.4c-3.95,0-7.811-1.61-10.61-4.4
			c-2.79-2.79-4.39-6.66-4.39-10.6c0-3.95,1.6-7.82,4.39-10.61c2.79-2.79,6.66-4.39,10.61-4.39c3.95,0,7.82,1.6,10.61,4.39
			s4.39,6.66,4.39,10.61C150.499,259.944,148.899,263.815,146.109,266.604z M266.609,266.604c-2.8,2.79-6.66,4.4-10.61,4.4
			s-7.811-1.61-10.61-4.4c-2.79-2.79-4.39-6.66-4.39-10.6c0-3.95,1.6-7.82,4.39-10.61c2.79-2.79,6.66-4.39,10.61-4.39
			s7.82,1.6,10.61,4.39c2.79,2.79,4.39,6.66,4.39,10.61C270.999,259.944,269.399,263.815,266.609,266.604z M387.109,266.604
			c-2.8,2.79-6.66,4.4-10.61,4.4c-3.939,0-7.811-1.61-10.6-4.4c-2.801-2.79-4.4-6.66-4.4-10.6c0-3.95,1.6-7.82,4.4-10.61
			c2.789-2.79,6.649-4.39,10.6-4.39c3.951,0,7.82,1.6,10.61,4.39c2.79,2.79,4.39,6.66,4.39,10.61
			C391.499,259.944,389.899,263.815,387.109,266.604z"/>
	</g>
</g>
<g>
</g>
<g>
</g>
<g>
</g>
<g>
</g>
<g>
</g>
<g>
</g>
<g>
</g>
<g>
</g>
<g>
</g>
<g>
</g>
<g>
</g>
<g>
</g>
<g>
</g>
<g>
</g>
<g>
</g>
</svg>
