<svg height="512pt" viewBox="-23 0 512 512" width="512pt" xmlns="http://www.w3.org/2000/svg"><path d="m437.65625 82.941406c-25.71875-8.839844-46.332031-29.558594-55.132812-55.441406-5.589844-16.449219-21-27.5-38.328126-27.5h-223.371093c-17.332031 0-32.742188 11.050781-38.332031 27.5-8.800782 25.882812-29.398438 46.601562-55.121094 55.441406-16.371094 5.621094-27.371094 21.074219-27.371094 38.441406v56.503907c0 73.734375 22.101562 144.734375 63.902344 205.316406 38.242187 55.433594 90.953125 98.816406 152.417968 125.457031 5.148438 2.230469 10.667969 3.339844 16.1875 3.339844 5.523438 0 11.042969-1.109375 16.183594-3.339844 61.472656-26.640625 114.183594-70.023437 152.425782-125.457031 41.800781-60.582031 63.902343-131.582031 63.902343-205.316406v-56.503907c0-17.367187-11-32.820312-27.363281-38.441406zm-105.285156 234c0 37.09375-30.179688 67.273438-67.269532 67.273438h-65.183593c-37.089844 0-67.273438-30.179688-67.273438-67.273438v-86.332031c0-19.921875 16.203125-36.121094 36.121094-36.121094h1.019531v-42.722656c0-34.582031 28.140625-62.722656 62.722656-62.722656 34.582032 0 62.722657 28.140625 62.722657 62.722656v42.722656h1.019531c19.921875 0 36.121094 16.199219 36.121094 36.121094zm0 0"/><path d="m265.230469 151.765625c0-18.039063-14.679688-32.722656-32.722657-32.722656-18.039062 0-32.71875 14.683593-32.71875 32.722656v42.722656h65.441407zm0 0"/><path d="m296.25 224.488281h-127.484375c-3.371094 0-6.121094 2.75-6.121094 6.121094v86.332031c0 20.550782 16.722657 37.273438 37.273438 37.273438h65.183593c20.550782 0 37.269532-16.722656 37.269532-37.273438v-86.332031c0-3.371094-2.738282-6.121094-6.121094-6.121094zm-48.742188 79.035157c0 8.289062-6.71875 15-15 15-8.277343 0-15-6.710938-15-15v-28.34375c0-8.277344 6.722657-15 15-15 8.28125 0 15 6.722656 15 15zm0 0"/></svg>