<svg height="512pt" viewBox="-68 0 512 512.02048" width="512pt" xmlns="http://www.w3.org/2000/svg"><path d="m307.210938 0h-184.234376c-4.5.0117188-8.816406 1.800781-12.007812 4.976562l-105.984375 105.980469c-3.171875 3.195313-4.9609375 7.507813-4.9726562 12.011719v371.964844c.0078124 9.421875 7.6445312 17.058594 17.0664062 17.066406h76.03125l.105469.019531h265.898437c9.046875-.007812 16.375-7.339843 16.386719-16.382812v-436.652344c-.035156-9.019531-7.363281-16.308594-16.386719-16.296875h-34.835937v-25.621094c-.007813-9.421875-7.644532-17.0585935-17.066406-17.066406zm-290.15625 123.023438 105.921874-105.957032h184.234376v477.867188h-290.132813zm341.378906-63.269532v435.199219h-34.15625v-435.199219zm0 0"/><path d="m238.964844 256.019531h-153.597656c-18.84375.023438-34.113282 15.292969-34.132813 34.132813v145.066406c.019531 18.84375 15.289063 34.113281 34.132813 34.136719h153.597656c18.84375-.023438 34.113281-15.292969 34.132812-34.136719v-145.066406c-.019531-18.839844-15.289062-34.109375-34.132812-34.132813zm-76.800782 196.269531c-7.839843.054688-15.253906-3.558593-20.042968-9.769531-1.074219-1.363281-2.011719-2.832031-2.800782-4.382812-.289062-.546875-.542968-1.109375-.757812-1.6875-.980469-2.210938-1.609375-4.5625-1.855469-6.972657-.070312-.953124-.140625-1.835937-.140625-2.789062v-128c.015625-14.132812 11.46875-25.585938 25.597656-25.601562 7.929688-.035157 15.414063 3.65625 20.210938 9.96875 1.058594 1.273437 1.941406 2.679687 2.636719 4.179687.300781.574219.566406 1.167969.796875 1.773437.96875 2.183594 1.582031 4.507813 1.816406 6.886719.070312.953125.140625 1.835938.140625 2.789063v128.003906c-.015625 14.132812-11.46875 25.585938-25.601563 25.601562zm-93.863281-119.46875h51.199219v59.734376h-51.199219zm136.53125 0h51.199219v59.734376h-51.199219zm34.132813-59.734374c9.421875.011718 17.058594 7.644531 17.066406 17.066406v25.601562h-51.199219v-17.066406c0-1.378906-.085937-2.664062-.210937-4.351562-.382813-4.160157-1.4375-8.226563-3.125-12.046876-.382813-.996093-.832032-1.964843-1.339844-2.902343-.597656-1.242188-1.269531-2.449219-2.007812-3.613281-.226563-.355469-.460938-.65625-.695313-.992188-.394531-.574219-.777344-1.183594-1.183594-1.699219zm-170.664063 17.066406c.007813-9.421875 7.644531-17.054688 17.066407-17.066406h42.6875c-.246094.328124-.429688.707031-.664063 1.042968-.503906.710938-.9375 1.457032-1.398437 2.199219-.890626 1.429687-1.699219 2.910156-2.414063 4.4375-.390625.835937-.761719 1.675781-1.097656 2.542969-.628907 1.648437-1.15625 3.339844-1.574219 5.054687-.203125.808594-.453125 1.589844-.609375 2.410157-.511719 2.609374-.777344 5.257812-.796875 7.914062v17.066406h-51.199219zm17.066407 162.136718c-9.421876-.011718-17.058594-7.648437-17.066407-17.070312v-25.597656h51.199219v17.066406c0 1.378906.085938 2.660156.210938 4.351562.402343 4.15625 1.457031 8.21875 3.125 12.046876.421874 1.082031.914062 2.136718 1.46875 3.15625 1.011718 1.929687 2.171874 3.777343 3.46875 5.53125.117187.15625.207031.359374.324218.511718zm170.664062-17.070312c-.007812 9.421875-7.644531 17.058594-17.066406 17.070312h-42.6875c.246094-.328124.429687-.707031.664062-1.042968.503906-.710938.9375-1.457032 1.398438-2.199219.890625-1.429687 1.695312-2.914063 2.410156-4.4375.394531-.839844.765625-1.679687 1.101562-2.546875.628907-1.648438 1.15625-3.339844 1.574219-5.054688.203125-.808593.453125-1.585937.605469-2.414062.515625-2.605469.78125-5.25.800781-7.90625v-17.066406h51.199219zm0 0"/></svg>