<?xml version="1.0" encoding="iso-8859-1"?>
<!-- Generator: Adobe Illustrator 18.0.0, SVG Export Plug-In . SVG Version: 6.00 Build 0)  -->
<!DOCTYPE svg PUBLIC "-//W3C//DTD SVG 1.1//EN" "http://www.w3.org/Graphics/SVG/1.1/DTD/svg11.dtd">
<svg version="1.1" id="Capa_1" xmlns="http://www.w3.org/2000/svg" xmlns:xlink="http://www.w3.org/1999/xlink" x="0px" y="0px"
	 viewBox="0 0 493.433 493.433" style="enable-background:new 0 0 493.433 493.433;" xml:space="preserve">
<g id="XMLID_250_">
	<path id="XMLID_254_" fill="#FFF" d="M246.707,185.932c-33.314,0-60.421,27.107-60.421,60.423c0,33.331,27.107,60.438,60.421,60.438
		c33.332,0,60.439-27.106,60.439-60.438C307.146,213.04,280.039,185.932,246.707,185.932z"/>
	<path id="XMLID_251_" fill="#FFF" d="M411.309,0H82.125C36.764,0,0,36.763,0,82.124v329.185c0,45.358,36.764,82.123,82.125,82.123h329.184
		c45.36,0,82.124-36.765,82.124-82.123V82.124C493.433,36.763,456.669,0,411.309,0z M246.707,356.067
		c-60.582,0-109.695-49.129-109.695-109.712c0-60.584,49.113-109.696,109.695-109.696c60.583,0,109.713,49.112,109.713,109.696
		C356.42,306.938,307.29,356.067,246.707,356.067z"/>
</g>
<g>
</g>
<g>
</g>
<g>
</g>
<g>
</g>
<g>
</g>
<g>
</g>
<g>
</g>
<g>
</g>
<g>
</g>
<g>
</g>
<g>
</g>
<g>
</g>
<g>
</g>
<g>
</g>
<g>
</g>
</svg>
